<svg width="152" height="35" viewBox="0 0 152 35" fill="none" xmlns="http://www.w3.org/2000/svg">
<g clip-path="url(#clip0_2100_16314)">
<g clip-path="url(#clip1_2100_16314)">
<path fill-rule="evenodd" clip-rule="evenodd" d="M32.7289 34.9062H4.02756C2.61457 34.9062 1.42236 33.714 1.42236 32.3011V3.51144C1.42236 2.09846 2.57042 0.90625 4.02756 0.90625H32.7289C34.186 0.90625 35.3341 2.09846 35.3341 3.51144V32.2569C35.3341 33.714 34.186 34.9062 32.7289 34.9062ZM21.2042 10.0465C21.7782 10.0465 22.2639 9.60495 22.2639 8.98677C22.2639 8.8543 22.2198 8.67768 22.1756 8.54521C21.6016 7.26469 20.4094 6.42573 18.9964 6.24911C16.7886 5.98417 14.8016 7.57378 14.5367 9.78158C11.3133 11.0179 8.92886 13.5348 8.39899 17.0673C8.31068 17.2439 8.26652 17.9504 8.26652 18.1712C8.26652 18.8335 8.79639 19.4075 9.50288 19.3634C10.5626 19.3634 10.7834 18.3037 10.7834 18.3037C11.0925 15.6543 12.7263 13.3582 15.1107 12.2101C15.1107 12.2543 15.1548 12.2543 15.1548 12.2985C16.347 14.1972 18.8198 14.7712 20.6743 13.579V13.5348H20.7185C21.2483 13.314 21.4691 12.6517 21.2042 12.166C20.9834 11.6361 20.3652 11.4153 19.8354 11.6361C19.7912 11.6803 19.7912 11.6803 19.747 11.6803C19.6587 11.7244 19.6146 11.7686 19.5704 11.8127C19.2613 11.9894 18.9081 12.1218 18.5548 12.1218C17.8483 12.1218 17.186 11.7244 16.8769 11.1063C16.3912 10.179 16.7444 9.03092 17.6717 8.54521C18.599 8.0595 19.747 8.41274 20.2328 9.34002C20.3652 9.73742 20.7626 10.0024 21.2042 10.0465ZM25.0016 25.9426C24.6925 26.4283 24.8691 27.0907 25.3548 27.3998C25.4873 27.4881 25.6198 27.5322 25.7964 27.5322C27.1652 27.6647 28.4899 27.0465 29.3289 25.9426C30.6535 24.1764 30.3003 21.6153 28.5341 20.2907C29.0639 16.8465 28.0925 13.5348 25.3548 11.2829C25.2665 11.1504 24.6483 10.7088 24.4717 10.6205C23.8977 10.3114 23.147 10.4881 22.8379 11.0621C22.3081 11.9894 23.1029 12.6959 23.1029 12.6959C25.2224 14.2855 26.4146 16.8465 26.1938 19.54H26.1055C23.8977 19.6283 22.1315 21.4829 22.2198 23.7348H22.2639C22.2198 24.1322 22.3964 24.5738 22.7938 24.7504C23.2795 25.0153 23.8977 24.8387 24.2068 24.353C24.2951 24.2205 24.3392 24.0881 24.3392 23.9114H24.3834V23.8673V23.8231C24.3834 23.7348 24.3834 23.6907 24.3392 23.6024C24.3392 23.5582 24.3392 23.514 24.3392 23.4257C24.3834 22.366 25.2665 21.5712 26.3263 21.6153C27.386 21.6595 28.1808 22.5868 28.1367 23.6465C28.0925 24.7063 27.2094 25.5011 26.1496 25.4569C25.6639 25.3244 25.2224 25.5452 25.0016 25.9426ZM9.23795 21.3504C8.97301 20.8205 8.31068 20.6439 7.82496 20.953C7.69249 21.0413 7.60418 21.1296 7.51587 21.2621C6.72107 22.4101 6.5886 23.8673 7.11847 25.1478C8.00158 27.179 10.3418 28.1504 12.373 27.2673C15.0665 29.4309 18.3782 30.2699 21.7341 28.9894C21.9107 28.9894 22.573 28.6361 22.7496 28.5478C23.3237 28.1946 23.5003 27.4439 23.1912 26.8699C22.6613 25.9426 21.6457 26.2959 21.6457 26.2959C19.2172 27.3556 16.4354 27.0907 14.2276 25.5894L14.2717 25.5452C15.3315 23.5582 14.5808 21.1296 12.6379 20.0699C12.3289 19.805 11.8431 19.805 11.4899 19.9816C11.3574 20.0699 11.2691 20.1582 11.1808 20.2907C10.8276 20.7764 10.96 21.4387 11.4016 21.7478H11.4457H11.4899C11.5782 21.792 11.6224 21.8361 11.7107 21.8361C12.0198 22.0127 12.2847 22.2335 12.4613 22.5426C12.9912 23.4699 12.6821 24.6179 11.7548 25.1478C10.8717 25.6777 9.67951 25.3686 9.14964 24.4413C8.79639 23.8231 8.79639 23.0725 9.19379 22.4543C9.41457 22.2335 9.45873 21.7478 9.23795 21.3504Z" fill="white"/>
<path fill-rule="evenodd" clip-rule="evenodd" d="M32.7289 34.9062H4.02756C2.61457 34.9062 1.42236 33.714 1.42236 32.3011V3.51144C1.42236 2.09846 2.57042 0.90625 4.02756 0.90625H32.7289C34.186 0.90625 35.3341 2.09846 35.3341 3.51144V32.2569C35.3341 33.714 34.186 34.9062 32.7289 34.9062ZM21.2042 10.0465C21.7782 10.0465 22.2639 9.60495 22.2639 8.98677C22.2639 8.8543 22.2198 8.67768 22.1756 8.54521C21.6016 7.26469 20.4094 6.42573 18.9964 6.24911C16.7886 5.98417 14.8016 7.57378 14.5367 9.78158C11.3133 11.0179 8.92886 13.5348 8.39899 17.0673C8.31068 17.2439 8.26652 17.9504 8.26652 18.1712C8.26652 18.8335 8.79639 19.4075 9.50288 19.3634C10.5626 19.3634 10.7834 18.3037 10.7834 18.3037C11.0925 15.6543 12.7263 13.3582 15.1107 12.2101C15.1107 12.2543 15.1548 12.2543 15.1548 12.2985C16.347 14.1972 18.8198 14.7712 20.6743 13.579V13.5348H20.7185C21.2483 13.314 21.4691 12.6517 21.2042 12.166C20.9834 11.6361 20.3652 11.4153 19.8354 11.6361C19.7912 11.6803 19.7912 11.6803 19.747 11.6803C19.6587 11.7244 19.6146 11.7686 19.5704 11.8127C19.2613 11.9894 18.9081 12.1218 18.5548 12.1218C17.8483 12.1218 17.186 11.7244 16.8769 11.1063C16.3912 10.179 16.7444 9.03092 17.6717 8.54521C18.599 8.0595 19.747 8.41274 20.2328 9.34002C20.3652 9.73742 20.7626 10.0024 21.2042 10.0465ZM25.0016 25.9426C24.6925 26.4283 24.8691 27.0907 25.3548 27.3998C25.4873 27.4881 25.6198 27.5322 25.7964 27.5322C27.1652 27.6647 28.4899 27.0465 29.3289 25.9426C30.6535 24.1764 30.3003 21.6153 28.5341 20.2907C29.0639 16.8465 28.0925 13.5348 25.3548 11.2829C25.2665 11.1504 24.6483 10.7088 24.4717 10.6205C23.8977 10.3114 23.147 10.4881 22.8379 11.0621C22.3081 11.9894 23.1029 12.6959 23.1029 12.6959C25.2224 14.2855 26.4146 16.8465 26.1938 19.54H26.1055C23.8977 19.6283 22.1315 21.4829 22.2198 23.7348H22.2639C22.2198 24.1322 22.3964 24.5738 22.7938 24.7504C23.2795 25.0153 23.8977 24.8387 24.2068 24.353C24.2951 24.2205 24.3392 24.0881 24.3392 23.9114H24.3834V23.8673V23.8231C24.3834 23.7348 24.3834 23.6907 24.3392 23.6024C24.3392 23.5582 24.3392 23.514 24.3392 23.4257C24.3834 22.366 25.2665 21.5712 26.3263 21.6153C27.386 21.6595 28.1808 22.5868 28.1367 23.6465C28.0925 24.7063 27.2094 25.5011 26.1496 25.4569C25.6639 25.3244 25.2224 25.5452 25.0016 25.9426ZM9.23795 21.3504C8.97301 20.8205 8.31068 20.6439 7.82496 20.953C7.69249 21.0413 7.60418 21.1296 7.51587 21.2621C6.72107 22.4101 6.5886 23.8673 7.11847 25.1478C8.00158 27.179 10.3418 28.1504 12.373 27.2673C15.0665 29.4309 18.3782 30.2699 21.7341 28.9894C21.9107 28.9894 22.573 28.6361 22.7496 28.5478C23.3237 28.1946 23.5003 27.4439 23.1912 26.8699C22.6613 25.9426 21.6457 26.2959 21.6457 26.2959C19.2172 27.3556 16.4354 27.0907 14.2276 25.5894L14.2717 25.5452C15.3315 23.5582 14.5808 21.1296 12.6379 20.0699C12.3289 19.805 11.8431 19.805 11.4899 19.9816C11.3574 20.0699 11.2691 20.1582 11.1808 20.2907C10.8276 20.7764 10.96 21.4387 11.4016 21.7478H11.4457H11.4899C11.5782 21.792 11.6224 21.8361 11.7107 21.8361C12.0198 22.0127 12.2847 22.2335 12.4613 22.5426C12.9912 23.4699 12.6821 24.6179 11.7548 25.1478C10.8717 25.6777 9.67951 25.3686 9.14964 24.4413C8.79639 23.8231 8.79639 23.0725 9.19379 22.4543C9.41457 22.2335 9.45873 21.7478 9.23795 21.3504Z" fill="url(#paint0_linear_2100_16314)"/>
<path fill-rule="evenodd" clip-rule="evenodd" d="M55.5574 10.4005C54.5418 9.60566 52.8639 9.20825 50.4794 9.20825H44.6509V24.5303H48.0509V19.629H50.3911L53.7911 24.5303H57.9859L54.1444 19.0109C56.0872 18.3044 57.0587 16.7147 57.0587 14.242C57.0587 12.4758 56.573 11.1953 55.5574 10.4005ZM50.5678 16.6706H48.095V12.1225H50.6561C51.76 12.1225 52.5106 12.255 52.9522 12.5641C53.3937 12.8732 53.6145 13.4472 53.6145 14.2862C53.6145 15.1251 53.3937 15.6992 52.9963 16.0966C52.5548 16.494 51.76 16.6706 50.5678 16.6706ZM63.4171 12.6966H60.1496V24.4862H63.4171V12.6966ZM61.7833 11.7693C62.8431 11.7693 63.682 10.8862 63.682 9.82644C63.682 8.7667 62.7989 7.92773 61.7392 7.92773C60.6795 7.92773 59.8405 8.81085 59.8405 9.87059C59.8405 10.3563 60.0613 10.842 60.4145 11.1953C60.7678 11.5927 61.2535 11.7693 61.7833 11.7693ZM69.9963 20.9537C69.3782 20.3797 69.0691 19.629 69.0691 18.6134C69.0691 17.5979 69.3782 16.8472 69.9963 16.2732C70.6145 15.6992 71.4093 15.4342 72.2041 15.4342C73.3522 15.4342 74.4561 15.9641 75.2067 16.8472L76.9288 14.5953C76.2665 13.9329 75.5158 13.4031 74.6327 13.0498C73.8379 12.6966 72.9548 12.5199 72.0717 12.5199C70.4379 12.4758 68.8924 13.094 67.7002 14.242C66.4639 15.3901 65.8457 16.8472 65.8457 18.6576C65.8457 20.468 66.4639 21.9251 67.6561 23.029C68.8924 24.1329 70.3496 24.707 72.1158 24.707C73.882 24.707 75.5158 23.9122 77.0171 22.3225L75.0743 20.1147C74.1911 21.2186 73.2197 21.7485 72.1158 21.7485C71.3652 21.7927 70.5704 21.4836 69.9963 20.9537ZM83.2872 16.0524C83.7288 15.6109 84.347 15.3459 85.0093 15.3459C86.334 15.3459 86.9963 16.2732 86.9963 18.0836V24.5303H90.2639V17.3329C90.2639 15.8758 89.8223 14.6836 88.9833 13.8446C88.1885 12.9615 87.0405 12.5199 85.8483 12.5199C84.6119 12.5199 83.508 13.0057 82.4924 14.0212V8.23683H79.2249V24.4862H82.4924V18.1719C82.5366 17.2446 82.8015 16.5381 83.2872 16.0524ZM96.534 14.0212V12.6966H93.2665V28.7251H96.534V22.9407C97.4171 24.0888 98.5652 24.6628 100.022 24.6628C101.479 24.6628 102.716 24.0888 103.776 22.8966C104.835 21.7485 105.365 20.2914 105.365 18.5251C105.365 16.8031 104.835 15.3459 103.776 14.1979C102.716 13.0498 101.479 12.4758 100.111 12.4758C98.7418 12.4758 97.5054 13.0057 96.534 14.0212ZM97.2846 16.229C97.8145 15.6109 98.4769 15.2576 99.2275 15.2576C100.022 15.2576 100.685 15.5667 101.215 16.229C101.789 16.8914 102.053 17.6862 102.053 18.6134C102.053 19.5407 101.789 20.3355 101.215 20.9537C100.64 21.5719 99.9782 21.881 99.2275 21.881C98.4769 21.881 97.7704 21.5719 97.2846 20.9537C96.7548 20.3355 96.4898 19.5849 96.4898 18.6134C96.4898 17.6862 96.7548 16.8914 97.2846 16.229ZM117.817 16.9797C117.817 15.4342 117.376 14.2862 116.448 13.5797C115.565 12.8732 114.373 12.5199 112.96 12.5199C111.061 12.4758 109.207 13.094 107.661 14.1979L109.118 16.3173C109.604 15.9641 110.134 15.655 110.708 15.4784C111.282 15.2576 111.9 15.1693 112.518 15.1251C113.843 15.1251 114.505 15.7433 114.505 17.0238V17.1122H112.077C110.576 17.1122 109.383 17.4212 108.5 17.9953C107.617 18.6135 107.176 19.4966 107.176 20.6888C107.176 21.881 107.617 22.8524 108.456 23.6031C109.295 24.3096 110.355 24.707 111.591 24.707C112.828 24.707 113.887 24.1771 114.726 23.1173V24.5303H117.817V16.9797ZM113.843 21.4394C113.402 21.7927 112.872 21.9693 112.298 21.9693C111.724 21.9693 111.282 21.8368 110.973 21.616C110.664 21.3953 110.487 21.042 110.487 20.6446C110.487 19.8498 111.15 19.4083 112.474 19.4083H114.55V19.9823C114.505 20.5563 114.285 21.1303 113.843 21.4394ZM124.794 15.8316C125.235 15.3901 125.853 15.1251 126.516 15.1251C127.84 15.1251 128.503 16.0524 128.503 17.8628V24.5303H131.77V17.3329C131.77 15.8758 131.373 14.6836 130.49 13.8446C129.695 12.9615 128.547 12.5199 127.355 12.5199C126.118 12.5199 125.015 13.0057 123.999 14.0212V12.6966H120.731V24.4862H123.999V17.9511C124.087 17.0238 124.308 16.3173 124.794 15.8316ZM143.118 20.8212C142.368 21.616 141.44 21.9693 140.292 21.9693C139.586 21.9693 138.924 21.7485 138.35 21.3511C137.82 20.9979 137.422 20.4238 137.334 19.7615H145.9V17.9953C145.9 16.2732 145.326 14.9485 144.222 13.9771C143.074 13.0057 141.705 12.5199 140.116 12.5199C138.57 12.4758 137.025 13.094 135.921 14.1537C134.729 15.2576 134.155 16.7147 134.155 18.5693C134.155 20.4238 134.729 21.9251 135.921 23.029C137.069 24.1329 138.57 24.6628 140.337 24.6628C142.103 24.6628 143.692 24.0446 145.017 22.7641L143.118 20.8212ZM142.589 17.4212H137.422C137.511 16.7589 137.82 16.1849 138.35 15.8316C138.879 15.4342 139.498 15.2576 140.116 15.2576C140.734 15.2576 141.308 15.4342 141.75 15.8316C142.279 16.1849 142.544 16.7147 142.589 17.4212ZM151.552 8.23683H148.285V24.4862H151.552V8.23683Z" fill="white"/>
<path fill-rule="evenodd" clip-rule="evenodd" d="M55.5574 10.4005C54.5418 9.60566 52.8639 9.20825 50.4794 9.20825H44.6509V24.5303H48.0509V19.629H50.3911L53.7911 24.5303H57.9859L54.1444 19.0109C56.0872 18.3044 57.0587 16.7147 57.0587 14.242C57.0587 12.4758 56.573 11.1953 55.5574 10.4005ZM50.5678 16.6706H48.095V12.1225H50.6561C51.76 12.1225 52.5106 12.255 52.9522 12.5641C53.3937 12.8732 53.6145 13.4472 53.6145 14.2862C53.6145 15.1251 53.3937 15.6992 52.9963 16.0966C52.5548 16.494 51.76 16.6706 50.5678 16.6706ZM63.4171 12.6966H60.1496V24.4862H63.4171V12.6966ZM61.7833 11.7693C62.8431 11.7693 63.682 10.8862 63.682 9.82644C63.682 8.7667 62.7989 7.92773 61.7392 7.92773C60.6795 7.92773 59.8405 8.81085 59.8405 9.87059C59.8405 10.3563 60.0613 10.842 60.4145 11.1953C60.7678 11.5927 61.2535 11.7693 61.7833 11.7693ZM69.9963 20.9537C69.3782 20.3797 69.0691 19.629 69.0691 18.6134C69.0691 17.5979 69.3782 16.8472 69.9963 16.2732C70.6145 15.6992 71.4093 15.4342 72.2041 15.4342C73.3522 15.4342 74.4561 15.9641 75.2067 16.8472L76.9288 14.5953C76.2665 13.9329 75.5158 13.4031 74.6327 13.0498C73.8379 12.6966 72.9548 12.5199 72.0717 12.5199C70.4379 12.4758 68.8924 13.094 67.7002 14.242C66.4639 15.3901 65.8457 16.8472 65.8457 18.6576C65.8457 20.468 66.4639 21.9251 67.6561 23.029C68.8924 24.1329 70.3496 24.707 72.1158 24.707C73.882 24.707 75.5158 23.9122 77.0171 22.3225L75.0743 20.1147C74.1911 21.2186 73.2197 21.7485 72.1158 21.7485C71.3652 21.7927 70.5704 21.4836 69.9963 20.9537ZM83.2872 16.0524C83.7288 15.6109 84.347 15.3459 85.0093 15.3459C86.334 15.3459 86.9963 16.2732 86.9963 18.0836V24.5303H90.2639V17.3329C90.2639 15.8758 89.8223 14.6836 88.9833 13.8446C88.1885 12.9615 87.0405 12.5199 85.8483 12.5199C84.6119 12.5199 83.508 13.0057 82.4924 14.0212V8.23683H79.2249V24.4862H82.4924V18.1719C82.5366 17.2446 82.8015 16.5381 83.2872 16.0524ZM96.534 14.0212V12.6966H93.2665V28.7251H96.534V22.9407C97.4171 24.0888 98.5652 24.6628 100.022 24.6628C101.479 24.6628 102.716 24.0888 103.776 22.8966C104.835 21.7485 105.365 20.2914 105.365 18.5251C105.365 16.8031 104.835 15.3459 103.776 14.1979C102.716 13.0498 101.479 12.4758 100.111 12.4758C98.7418 12.4758 97.5054 13.0057 96.534 14.0212ZM97.2846 16.229C97.8145 15.6109 98.4769 15.2576 99.2275 15.2576C100.022 15.2576 100.685 15.5667 101.215 16.229C101.789 16.8914 102.053 17.6862 102.053 18.6134C102.053 19.5407 101.789 20.3355 101.215 20.9537C100.64 21.5719 99.9782 21.881 99.2275 21.881C98.4769 21.881 97.7704 21.5719 97.2846 20.9537C96.7548 20.3355 96.4898 19.5849 96.4898 18.6134C96.4898 17.6862 96.7548 16.8914 97.2846 16.229ZM117.817 16.9797C117.817 15.4342 117.376 14.2862 116.448 13.5797C115.565 12.8732 114.373 12.5199 112.96 12.5199C111.061 12.4758 109.207 13.094 107.661 14.1979L109.118 16.3173C109.604 15.9641 110.134 15.655 110.708 15.4784C111.282 15.2576 111.9 15.1693 112.518 15.1251C113.843 15.1251 114.505 15.7433 114.505 17.0238V17.1122H112.077C110.576 17.1122 109.383 17.4212 108.5 17.9953C107.617 18.6135 107.176 19.4966 107.176 20.6888C107.176 21.881 107.617 22.8524 108.456 23.6031C109.295 24.3096 110.355 24.707 111.591 24.707C112.828 24.707 113.887 24.1771 114.726 23.1173V24.5303H117.817V16.9797ZM113.843 21.4394C113.402 21.7927 112.872 21.9693 112.298 21.9693C111.724 21.9693 111.282 21.8368 110.973 21.616C110.664 21.3953 110.487 21.042 110.487 20.6446C110.487 19.8498 111.15 19.4083 112.474 19.4083H114.55V19.9823C114.505 20.5563 114.285 21.1303 113.843 21.4394ZM124.794 15.8316C125.235 15.3901 125.853 15.1251 126.516 15.1251C127.84 15.1251 128.503 16.0524 128.503 17.8628V24.5303H131.77V17.3329C131.77 15.8758 131.373 14.6836 130.49 13.8446C129.695 12.9615 128.547 12.5199 127.355 12.5199C126.118 12.5199 125.015 13.0057 123.999 14.0212V12.6966H120.731V24.4862H123.999V17.9511C124.087 17.0238 124.308 16.3173 124.794 15.8316ZM143.118 20.8212C142.368 21.616 141.44 21.9693 140.292 21.9693C139.586 21.9693 138.924 21.7485 138.35 21.3511C137.82 20.9979 137.422 20.4238 137.334 19.7615H145.9V17.9953C145.9 16.2732 145.326 14.9485 144.222 13.9771C143.074 13.0057 141.705 12.5199 140.116 12.5199C138.57 12.4758 137.025 13.094 135.921 14.1537C134.729 15.2576 134.155 16.7147 134.155 18.5693C134.155 20.4238 134.729 21.9251 135.921 23.029C137.069 24.1329 138.57 24.6628 140.337 24.6628C142.103 24.6628 143.692 24.0446 145.017 22.7641L143.118 20.8212ZM142.589 17.4212H137.422C137.511 16.7589 137.82 16.1849 138.35 15.8316C138.879 15.4342 139.498 15.2576 140.116 15.2576C140.734 15.2576 141.308 15.4342 141.75 15.8316C142.279 16.1849 142.544 16.7147 142.589 17.4212ZM151.552 8.23683H148.285V24.4862H151.552V8.23683Z" fill="url(#paint1_linear_2100_16314)"/>
</g>
</g>
<defs>
<linearGradient id="paint0_linear_2100_16314" x1="1.42236" y1="17.9062" x2="35.3341" y2="17.9062" gradientUnits="userSpaceOnUse">
<stop stop-color="#F4F4F4"/>
<stop offset="1" stop-color="#C6C6C6"/>
</linearGradient>
<linearGradient id="paint1_linear_2100_16314" x1="44.6509" y1="18.3264" x2="151.552" y2="18.3264" gradientUnits="userSpaceOnUse">
<stop stop-color="#F4F4F4"/>
<stop offset="1" stop-color="#C6C6C6"/>
</linearGradient>
<clipPath id="clip0_2100_16314">
<rect width="151" height="34" fill="white" transform="translate(0.987305 0.90625)"/>
</clipPath>
<clipPath id="clip1_2100_16314">
<rect width="151" height="34" fill="white" transform="translate(0.987305 0.90625)"/>
</clipPath>
</defs>
</svg>
