<svg xmlns="http://www.w3.org/2000/svg" width="100%" viewBox="0 0 24 25" fill="none" class="steps_card_icon" style="transform: translate3d(0px, 0px, 0px) scale3d(1, 1, 1) rotateX(0deg) rotateY(0deg) rotateZ(0deg) skew(0deg, 0deg); transform-style: preserve-3d;"><path d="M1.5 8.19141H9.75M9.75 8.19141C9.75 9.43405 10.7574 10.4414 12 10.4414C13.2426 10.4414 14.25 9.43405 14.25 8.19141M9.75 8.19141C9.75 6.94877 10.7574 5.94141 12 5.94141C13.2426 5.94141 14.25 6.94877 14.25 8.19141M14.25 8.19141H22.5M14.2294 8.49609C15.715 8.91415 17.0537 9.73997 18.094 10.88C19.1342 12.02 19.8343 13.4286 20.115 14.9461M3.885 14.9461C4.16576 13.4286 4.86592 12.0201 5.90615 10.8801C6.94638 9.7401 8.2851 8.91425 9.77063 8.49609M6 17.1914C6 18.434 4.99264 19.4414 3.75 19.4414C2.50736 19.4414 1.5 18.434 1.5 17.1914C1.5 15.9488 2.50736 14.9414 3.75 14.9414C4.99264 14.9414 6 15.9488 6 17.1914ZM22.5 17.1914C22.5 18.434 21.4926 19.4414 20.25 19.4414C19.0074 19.4414 18 18.434 18 17.1914C18 15.9488 19.0074 14.9414 20.25 14.9414C21.4926 14.9414 22.5 15.9488 22.5 17.1914Z" stroke="currentColor" stroke-width="2" stroke-linecap="round" stroke-linejoin="round"/></svg>