<svg xmlns="http://www.w3.org/2000/svg" width="100%" viewBox="0 0 24 25" fill="none" class="steps_card_icon" style="transform: translate3d(0px, 0px, 0px) scale3d(1.1, 1.1, 1) rotateX(0deg) rotateY(0deg) rotateZ(0deg) skew(0deg, 0deg); transform-style: preserve-3d;"><path d="M8.99975 17.9414C8.99975 17.9414 8.24975 20.9414 3.74975 20.9414C3.74975 16.4414 6.74975 15.6914 6.74975 15.6914M7.49975 12.6914L13.4163 6.7748C15.6682 4.52293 18.3429 4.38418 19.5363 4.45449C19.7182 4.46619 19.8896 4.54373 20.0185 4.67261C20.1474 4.8015 20.2249 4.97291 20.2366 5.1548C20.3069 6.34824 20.1663 9.0248 17.9163 11.2748L11.9998 17.1914M7.49975 12.6914L11.9998 17.1914M7.49975 12.6914L3.64475 12.1532C3.50696 12.1335 3.37736 12.0758 3.27048 11.9867C3.1636 11.8975 3.08365 11.7803 3.03957 11.6483C2.99549 11.5162 2.98903 11.3745 3.02091 11.239C3.05278 11.1035 3.12174 10.9796 3.22007 10.8811L6.44038 7.66074C6.58092 7.52035 6.77142 7.44146 6.97007 7.44136H12.7498M11.9998 17.1914L12.5379 21.0464C12.5576 21.1842 12.6153 21.3138 12.7044 21.4206C12.7936 21.5275 12.9108 21.6075 13.0428 21.6515C13.1749 21.6956 13.3166 21.7021 13.4521 21.6702C13.5876 21.6383 13.7115 21.5694 13.8101 21.4711L17.0304 18.2507C17.1708 18.1102 17.2497 17.9197 17.2498 17.7211V11.9414" stroke="currentColor" stroke-width="2" stroke-linecap="round" stroke-linejoin="round"/></svg>